<mxfile host="app.diagrams.net" modified="2021-03-12T06:30:53.804Z" agent="5.0 (Windows NT 10.0; Win64; x64) AppleWebKit/537.36 (KHTML, like Gecko) Chrome/88.0.4324.190 Safari/537.36" etag="dGmUbvWewCIxtv7QMxiX" version="14.4.7" type="github">
  <diagram id="stkpWxyT5d5m05XL8yqK" name="Page-1">
    <mxGraphModel dx="2062" dy="1123" grid="1" gridSize="10" guides="1" tooltips="1" connect="1" arrows="1" fold="1" page="1" pageScale="1" pageWidth="850" pageHeight="1100" math="0" shadow="0">
      <root>
        <mxCell id="0" />
        <mxCell id="1" parent="0" />
        <mxCell id="ROj4jnfhJvZTESKIqYEg-3" value="" style="edgeStyle=orthogonalEdgeStyle;rounded=0;orthogonalLoop=1;jettySize=auto;html=1;" edge="1" parent="1" source="ROj4jnfhJvZTESKIqYEg-1" target="ROj4jnfhJvZTESKIqYEg-2">
          <mxGeometry relative="1" as="geometry" />
        </mxCell>
        <mxCell id="ROj4jnfhJvZTESKIqYEg-1" value="SQL Server&lt;br&gt;DataSource 1" style="aspect=fixed;perimeter=ellipsePerimeter;html=1;align=center;shadow=0;dashed=0;spacingTop=3;image;image=img/lib/active_directory/database_server.svg;" vertex="1" parent="1">
          <mxGeometry x="10" y="120" width="98.4" height="120" as="geometry" />
        </mxCell>
        <mxCell id="ROj4jnfhJvZTESKIqYEg-10" value="" style="edgeStyle=orthogonalEdgeStyle;rounded=0;orthogonalLoop=1;jettySize=auto;html=1;" edge="1" parent="1" source="ROj4jnfhJvZTESKIqYEg-2" target="ROj4jnfhJvZTESKIqYEg-9">
          <mxGeometry relative="1" as="geometry" />
        </mxCell>
        <mxCell id="ROj4jnfhJvZTESKIqYEg-2" value="DataSource 1&lt;br&gt;Collection" style="shape=cylinder;whiteSpace=wrap;html=1;boundedLbl=1;backgroundOutline=1;shadow=0;dashed=0;verticalAlign=top;labelBackgroundColor=white;spacingTop=3;" vertex="1" parent="1">
          <mxGeometry x="280" y="140" width="120" height="80" as="geometry" />
        </mxCell>
        <mxCell id="ROj4jnfhJvZTESKIqYEg-6" value="" style="edgeStyle=orthogonalEdgeStyle;rounded=0;orthogonalLoop=1;jettySize=auto;html=1;" edge="1" parent="1" source="ROj4jnfhJvZTESKIqYEg-7" target="ROj4jnfhJvZTESKIqYEg-8">
          <mxGeometry relative="1" as="geometry" />
        </mxCell>
        <mxCell id="ROj4jnfhJvZTESKIqYEg-7" value="SQL Server&lt;br&gt;DataSource 2" style="aspect=fixed;perimeter=ellipsePerimeter;html=1;align=center;shadow=0;dashed=0;spacingTop=3;image;image=img/lib/active_directory/database_server.svg;" vertex="1" parent="1">
          <mxGeometry x="10" y="400" width="98.4" height="120" as="geometry" />
        </mxCell>
        <mxCell id="ROj4jnfhJvZTESKIqYEg-12" style="edgeStyle=orthogonalEdgeStyle;rounded=0;orthogonalLoop=1;jettySize=auto;html=1;exitX=1;exitY=0.5;exitDx=0;exitDy=0;entryX=0.5;entryY=1;entryDx=0;entryDy=0;" edge="1" parent="1" source="ROj4jnfhJvZTESKIqYEg-8" target="ROj4jnfhJvZTESKIqYEg-9">
          <mxGeometry relative="1" as="geometry" />
        </mxCell>
        <mxCell id="ROj4jnfhJvZTESKIqYEg-8" value="DataSource 2&lt;br&gt;Collection" style="shape=cylinder;whiteSpace=wrap;html=1;boundedLbl=1;backgroundOutline=1;shadow=0;dashed=0;verticalAlign=top;labelBackgroundColor=white;spacingTop=3;" vertex="1" parent="1">
          <mxGeometry x="280" y="420" width="120" height="80" as="geometry" />
        </mxCell>
        <mxCell id="ROj4jnfhJvZTESKIqYEg-9" value="Warehouse&lt;br&gt;Collection" style="shape=cylinder;whiteSpace=wrap;html=1;boundedLbl=1;backgroundOutline=1;shadow=0;dashed=0;verticalAlign=top;labelBackgroundColor=white;spacingTop=3;" vertex="1" parent="1">
          <mxGeometry x="520" y="270" width="120" height="80" as="geometry" />
        </mxCell>
      </root>
    </mxGraphModel>
  </diagram>
</mxfile>
